<?xml version="1.0" encoding="UTF-8" standalone="no"?>
<!DOCTYPE svg PUBLIC "-//W3C//DTD SVG 1.1//EN"
 "http://www.w3.org/Graphics/SVG/1.1/DTD/svg11.dtd">
<!-- Generated by graphviz version 2.49.0 (20210828.1703)
 -->
<!-- Title: yw_data_view Pages: 1 -->
<svg width="509pt" height="264pt"
 viewBox="0.00 0.00 509.00 264.00" xmlns="http://www.w3.org/2000/svg" xmlns:xlink="http://www.w3.org/1999/xlink">
<g id="graph0" class="graph" transform="scale(1 1) rotate(0) translate(4 260)">
<title>yw_data_view</title>
<polygon fill="white" stroke="transparent" points="-4,4 -4,-260 505,-260 505,4 -4,4"/>
<text text-anchor="middle" x="250.5" y="-237.6" font-family="Courier,monospace" font-size="18.00">restaurant_inspection_pipeline</text>
<g id="clust3" class="cluster">
<title>cluster_inflows</title>
<polygon fill="none" stroke="white" stroke-width="2" points="447,-163 447,-209 493,-209 493,-163 447,-163"/>
</g>
<g id="clust4" class="cluster">
<title>cluster_inflows_inner</title>
<polygon fill="none" stroke="white" stroke-width="2" points="455,-171 455,-201 485,-201 485,-171 455,-171"/>
</g>
<g id="clust1" class="cluster">
<title>cluster_workflow</title>
<polygon fill="none" stroke="black" stroke-width="2" points="8,-8 8,-220 439,-220 439,-8 8,-8"/>
</g>
<g id="clust2" class="cluster">
<title>cluster_workflow_inner</title>
<polygon fill="none" stroke="white" stroke-width="2" points="16,-16 16,-212 431,-212 431,-16 16,-16"/>
</g>
<g id="clust5" class="cluster">
<title>cluster_outflows</title>
<polygon fill="none" stroke="white" stroke-width="2" points="447,-19 447,-65 493,-65 493,-19 447,-19"/>
</g>
<g id="clust6" class="cluster">
<title>cluster_outflows_inner</title>
<polygon fill="none" stroke="white" stroke-width="2" points="455,-27 455,-57 485,-57 485,-27 455,-27"/>
</g>
<!-- restaurant_inspection_import -->
<g id="node1" class="node">
<title>restaurant_inspection_import</title>
<polygon fill="#ccffcc" stroke="black" points="272,-132 24,-132 24,-96 272,-96 272,-132"/>
<text text-anchor="middle" x="148" y="-110.3" font-family="Courier,monospace" font-size="14.00">restaurant_inspection_import</text>
</g>
<!-- RestaurantInspectionRead -->
<g id="node5" class="node">
<title>RestaurantInspectionRead</title>
<path fill="#ffffcc" stroke="black" d="M228.5,-60C228.5,-60 67.5,-60 67.5,-60 61.5,-60 55.5,-54 55.5,-48 55.5,-48 55.5,-36 55.5,-36 55.5,-30 61.5,-24 67.5,-24 67.5,-24 228.5,-24 228.5,-24 234.5,-24 240.5,-30 240.5,-36 240.5,-36 240.5,-48 240.5,-48 240.5,-54 234.5,-60 228.5,-60"/>
<text text-anchor="middle" x="148" y="-38.3" font-family="Helvetica,sans-Serif" font-size="14.00">RestaurantInspectionRead</text>
</g>
<!-- restaurant_inspection_import&#45;&gt;RestaurantInspectionRead -->
<g id="edge4" class="edge">
<title>restaurant_inspection_import&#45;&gt;RestaurantInspectionRead</title>
<path fill="none" stroke="black" d="M148,-95.7C148,-87.98 148,-78.71 148,-70.11"/>
<polygon fill="black" stroke="black" points="151.5,-70.1 148,-60.1 144.5,-70.1 151.5,-70.1"/>
</g>
<!-- CleanRestaurantInspections -->
<g id="node2" class="node">
<title>CleanRestaurantInspections</title>
<polygon fill="#ccffcc" stroke="black" points="422.5,-204 191.5,-204 191.5,-168 422.5,-168 422.5,-204"/>
<text text-anchor="middle" x="307" y="-182.3" font-family="Courier,monospace" font-size="14.00">CleanRestaurantInspections</text>
</g>
<!-- stuff -->
<g id="node4" class="node">
<title>stuff</title>
<path fill="#ffffcc" stroke="black" d="M356,-132C356,-132 326,-132 326,-132 320,-132 314,-126 314,-120 314,-120 314,-108 314,-108 314,-102 320,-96 326,-96 326,-96 356,-96 356,-96 362,-96 368,-102 368,-108 368,-108 368,-120 368,-120 368,-126 362,-132 356,-132"/>
<text text-anchor="middle" x="341" y="-110.3" font-family="Helvetica,sans-Serif" font-size="14.00">stuff</text>
</g>
<!-- CleanRestaurantInspections&#45;&gt;stuff -->
<g id="edge5" class="edge">
<title>CleanRestaurantInspections&#45;&gt;stuff</title>
<path fill="none" stroke="black" d="M309.49,-167.7C312.57,-159.64 317.09,-149.89 321.83,-140.98"/>
<polygon fill="black" stroke="black" points="324.97,-142.54 326.8,-132.1 318.86,-139.12 324.97,-142.54"/>
</g>
<!-- SaveTableCSVs -->
<g id="node3" class="node">
<title>SaveTableCSVs</title>
<polygon fill="#ccffcc" stroke="black" points="403,-60 279,-60 279,-24 403,-24 403,-60"/>
<text text-anchor="middle" x="341" y="-38.3" font-family="Courier,monospace" font-size="14.00">SaveTableCSVs</text>
</g>
<!-- SaveTableCSVs&#45;&gt;stuff -->
<g id="edge6" class="edge">
<title>SaveTableCSVs&#45;&gt;stuff</title>
<path fill="none" stroke="black" d="M346.9,-60.1C347.7,-67.79 347.94,-77.05 347.6,-85.67"/>
<polygon fill="black" stroke="black" points="344.11,-85.48 346.92,-95.7 351.09,-85.96 344.11,-85.48"/>
</g>
<!-- stuff&#45;&gt;CleanRestaurantInspections -->
<g id="edge1" class="edge">
<title>stuff&#45;&gt;CleanRestaurantInspections</title>
<path fill="none" stroke="black" d="M338.59,-132.1C335.53,-140.13 331.02,-149.87 326.28,-158.8"/>
<polygon fill="black" stroke="black" points="323.13,-157.26 321.32,-167.7 329.25,-160.67 323.13,-157.26"/>
</g>
<!-- stuff&#45;&gt;SaveTableCSVs -->
<g id="edge2" class="edge">
<title>stuff&#45;&gt;SaveTableCSVs</title>
<path fill="none" stroke="black" d="M335.08,-95.7C334.29,-87.98 334.06,-78.71 334.4,-70.11"/>
<polygon fill="black" stroke="black" points="337.9,-70.32 335.1,-60.1 330.92,-69.84 337.9,-70.32"/>
</g>
<!-- stuff_outflow -->
<g id="node8" class="node">
<title>stuff_outflow</title>
<ellipse fill="none" stroke="black" cx="470" cy="-42" rx="7" ry="7"/>
</g>
<!-- stuff&#45;&gt;stuff_outflow -->
<g id="edge8" class="edge">
<title>stuff&#45;&gt;stuff_outflow</title>
<path fill="none" stroke="black" d="M368.08,-99.97C387.04,-90.65 412.85,-77.58 435,-65 442.04,-61 449.68,-56.25 456.02,-52.19"/>
<polygon fill="black" stroke="black" points="458.16,-54.97 464.63,-46.58 454.34,-49.1 458.16,-54.97"/>
</g>
<!-- restaurant_data_path -->
<g id="node6" class="node">
<title>restaurant_data_path</title>
<path fill="#ffffcc" stroke="black" d="M161.5,-204C161.5,-204 36.5,-204 36.5,-204 30.5,-204 24.5,-198 24.5,-192 24.5,-192 24.5,-180 24.5,-180 24.5,-174 30.5,-168 36.5,-168 36.5,-168 161.5,-168 161.5,-168 167.5,-168 173.5,-174 173.5,-180 173.5,-180 173.5,-192 173.5,-192 173.5,-198 167.5,-204 161.5,-204"/>
<text text-anchor="middle" x="99" y="-182.3" font-family="Helvetica,sans-Serif" font-size="14.00">restaurant_data_path</text>
</g>
<!-- restaurant_data_path&#45;&gt;restaurant_inspection_import -->
<g id="edge3" class="edge">
<title>restaurant_data_path&#45;&gt;restaurant_inspection_import</title>
<path fill="none" stroke="black" d="M111.11,-167.7C116.87,-159.47 123.86,-149.48 130.21,-140.42"/>
<polygon fill="black" stroke="black" points="133.16,-142.3 136.03,-132.1 127.42,-138.29 133.16,-142.3"/>
</g>
<!-- stuff_inflow -->
<g id="node7" class="node">
<title>stuff_inflow</title>
<ellipse fill="none" stroke="black" cx="470" cy="-186" rx="7" ry="7"/>
</g>
<!-- stuff_inflow&#45;&gt;stuff -->
<g id="edge7" class="edge">
<title>stuff_inflow&#45;&gt;stuff</title>
<path fill="none" stroke="black" d="M464.63,-181.42C457.84,-176.93 445.73,-169.1 435,-163 416.31,-152.38 395.02,-141.42 377.43,-132.66"/>
<polygon fill="black" stroke="black" points="378.59,-129.33 368.08,-128.03 375.49,-135.6 378.59,-129.33"/>
</g>
</g>
</svg>
