<?xml version="1.0" encoding="UTF-8" standalone="no"?>
<!DOCTYPE svg PUBLIC "-//W3C//DTD SVG 1.1//EN"
 "http://www.w3.org/Graphics/SVG/1.1/DTD/svg11.dtd">
<!-- Generated by graphviz version 2.49.0 (20210828.1703)
 -->
<!-- Title: Workflow Pages: 1 -->
<svg width="682pt" height="294pt"
 viewBox="0.00 0.00 682.00 294.00" xmlns="http://www.w3.org/2000/svg" xmlns:xlink="http://www.w3.org/1999/xlink">
<g id="graph0" class="graph" transform="scale(1 1) rotate(0) translate(4 290)">
<title>Workflow</title>
<polygon fill="white" stroke="transparent" points="-4,4 -4,-290 678,-290 678,4 -4,4"/>
<text text-anchor="middle" x="337" y="-267.6" font-family="Courier,monospace" font-size="18.00">restaurant_inspection_pipeline</text>
<g id="clust1" class="cluster">
<title>cluster_workflow_box_outer</title>
<polygon fill="none" stroke="black" stroke-width="2" points="8,-8 8,-250 612,-250 612,-8 8,-8"/>
</g>
<g id="clust2" class="cluster">
<title>cluster_workflow_box_inner</title>
<polygon fill="none" stroke="white" stroke-width="2" points="16,-16 16,-242 604,-242 604,-16 16,-16"/>
</g>
<g id="clust3" class="cluster">
<title>cluster_input_ports_group_outer</title>
<polygon fill="none" stroke="white" points="620,-187.5 620,-233.5 666,-233.5 666,-187.5 620,-187.5"/>
</g>
<g id="clust4" class="cluster">
<title>cluster_input_ports_group_inner</title>
<polygon fill="none" stroke="white" points="628,-195.5 628,-225.5 658,-225.5 658,-195.5 628,-195.5"/>
</g>
<g id="clust5" class="cluster">
<title>cluster_output_ports_group_outer</title>
<polygon fill="none" stroke="white" points="620,-23 620,-69 666,-69 666,-23 620,-23"/>
</g>
<g id="clust6" class="cluster">
<title>cluster_output_ports_group_inner</title>
<polygon fill="none" stroke="white" points="628,-31 628,-61 658,-61 658,-31 628,-31"/>
</g>
<!-- restaurant_inspection_import -->
<g id="node1" class="node">
<title>restaurant_inspection_import</title>
<polygon fill="#ccffcc" stroke="black" points="24.5,-104.5 24.5,-150.5 453.5,-150.5 453.5,-104.5 24.5,-104.5"/>
<text text-anchor="middle" x="239" y="-135.3" font-family="Courier,monospace" font-size="14.00">restaurant_inspection_import</text>
<polyline fill="none" stroke="black" points="24.5,-127.5 453.5,-127.5 "/>
<text text-anchor="middle" x="239" y="-112.3" font-family="Courier,monospace" font-size="14.00">To read in the data from RestaurantInspections.csv</text>
</g>
<!-- RestaurantInspectionRead -->
<g id="node5" class="node">
<title>RestaurantInspectionRead</title>
<path fill="#fcfcfc" stroke="black" d="M319.5,-64C319.5,-64 158.5,-64 158.5,-64 152.5,-64 146.5,-58 146.5,-52 146.5,-52 146.5,-40 146.5,-40 146.5,-34 152.5,-28 158.5,-28 158.5,-28 319.5,-28 319.5,-28 325.5,-28 331.5,-34 331.5,-40 331.5,-40 331.5,-52 331.5,-52 331.5,-58 325.5,-64 319.5,-64"/>
<text text-anchor="middle" x="239" y="-42.3" font-family="Helvetica,sans-Serif" font-size="14.00">RestaurantInspectionRead</text>
</g>
<!-- restaurant_inspection_import&#45;&gt;RestaurantInspectionRead -->
<g id="edge1" class="edge">
<title>restaurant_inspection_import&#45;&gt;RestaurantInspectionRead</title>
<path fill="none" stroke="black" d="M239,-104.35C239,-95.04 239,-84.11 239,-74.31"/>
<polygon fill="black" stroke="black" points="242.5,-74.24 239,-64.24 235.5,-74.24 242.5,-74.24"/>
</g>
<!-- CleanRestaurantInspections -->
<g id="node2" class="node">
<title>CleanRestaurantInspections</title>
<polygon fill="#ccffcc" stroke="black" points="192,-187.5 192,-233.5 596,-233.5 596,-187.5 192,-187.5"/>
<text text-anchor="middle" x="394" y="-218.3" font-family="Courier,monospace" font-size="14.00">CleanRestaurantInspections</text>
<polyline fill="none" stroke="black" points="192,-210.5 596,-210.5 "/>
<text text-anchor="middle" x="394" y="-195.3" font-family="Courier,monospace" font-size="14.00">Clean columns of the restaurant inspection data</text>
</g>
<!-- stuff -->
<g id="node4" class="node">
<title>stuff</title>
<path fill="#ffffcc" stroke="black" d="M529,-145.5C529,-145.5 499,-145.5 499,-145.5 493,-145.5 487,-139.5 487,-133.5 487,-133.5 487,-121.5 487,-121.5 487,-115.5 493,-109.5 499,-109.5 499,-109.5 529,-109.5 529,-109.5 535,-109.5 541,-115.5 541,-121.5 541,-121.5 541,-133.5 541,-133.5 541,-139.5 535,-145.5 529,-145.5"/>
<text text-anchor="middle" x="514" y="-123.8" font-family="Helvetica,sans-Serif" font-size="14.00">stuff</text>
</g>
<!-- CleanRestaurantInspections&#45;&gt;stuff -->
<g id="edge3" class="edge">
<title>CleanRestaurantInspections&#45;&gt;stuff</title>
<path fill="none" stroke="black" d="M420.7,-187.37C437.74,-175.24 459.9,-160.31 478.41,-148.53"/>
<polygon fill="black" stroke="black" points="480.29,-151.48 486.89,-143.19 476.56,-145.56 480.29,-151.48"/>
</g>
<!-- SaveTableCSVs -->
<g id="node3" class="node">
<title>SaveTableCSVs</title>
<polygon fill="#ccffcc" stroke="black" points="576,-64 452,-64 452,-28 576,-28 576,-64"/>
<polygon fill="none" stroke="black" points="580,-68 448,-68 448,-24 580,-24 580,-68"/>
<text text-anchor="middle" x="514" y="-42.3" font-family="Courier,monospace" font-size="14.00">SaveTableCSVs</text>
</g>
<!-- SaveTableCSVs&#45;&gt;stuff -->
<g id="edge5" class="edge">
<title>SaveTableCSVs&#45;&gt;stuff</title>
<path fill="none" stroke="black" d="M520.05,-68.18C520.82,-77.71 520.96,-89.08 520.45,-99.23"/>
<polygon fill="black" stroke="black" points="516.95,-99.01 519.68,-109.25 523.93,-99.55 516.95,-99.01"/>
</g>
<!-- stuff&#45;&gt;CleanRestaurantInspections -->
<g id="edge4" class="edge">
<title>stuff&#45;&gt;CleanRestaurantInspections</title>
<path fill="none" stroke="black" d="M494.12,-145.73C479.78,-156.17 459.96,-169.73 441.69,-181.66"/>
<polygon fill="black" stroke="black" points="439.37,-178.99 432.88,-187.37 443.18,-184.87 439.37,-178.99"/>
</g>
<!-- stuff&#45;&gt;SaveTableCSVs -->
<g id="edge6" class="edge">
<title>stuff&#45;&gt;SaveTableCSVs</title>
<path fill="none" stroke="black" d="M508.32,-109.25C507.35,-100.21 507.04,-88.85 507.39,-78.32"/>
<polygon fill="black" stroke="black" points="510.89,-78.36 507.95,-68.18 503.9,-77.97 510.89,-78.36"/>
</g>
<!-- stuff_output_port -->
<g id="node8" class="node">
<title>stuff_output_port</title>
<ellipse fill="#ffffff" stroke="black" cx="643" cy="-46" rx="7" ry="7"/>
</g>
<!-- stuff&#45;&gt;stuff_output_port -->
<g id="edge8" class="edge">
<title>stuff&#45;&gt;stuff_output_port</title>
<path fill="none" stroke="black" d="M541.2,-109.98C560,-98.53 585.56,-82.91 608,-69 614.88,-64.73 622.5,-59.95 628.87,-55.94"/>
<polygon fill="black" stroke="black" points="630.97,-58.75 637.56,-50.45 627.23,-52.83 630.97,-58.75"/>
</g>
<!-- restaurant_data_path -->
<g id="node6" class="node">
<title>restaurant_data_path</title>
<path fill="#fcfcfc" stroke="black" d="M161.5,-228.5C161.5,-228.5 36.5,-228.5 36.5,-228.5 30.5,-228.5 24.5,-222.5 24.5,-216.5 24.5,-216.5 24.5,-204.5 24.5,-204.5 24.5,-198.5 30.5,-192.5 36.5,-192.5 36.5,-192.5 161.5,-192.5 161.5,-192.5 167.5,-192.5 173.5,-198.5 173.5,-204.5 173.5,-204.5 173.5,-216.5 173.5,-216.5 173.5,-222.5 167.5,-228.5 161.5,-228.5"/>
<text text-anchor="middle" x="99" y="-206.8" font-family="Helvetica,sans-Serif" font-size="14.00">restaurant_data_path</text>
</g>
<!-- restaurant_data_path&#45;&gt;restaurant_inspection_import -->
<g id="edge2" class="edge">
<title>restaurant_data_path&#45;&gt;restaurant_inspection_import</title>
<path fill="none" stroke="black" d="M128.69,-192.32C147.09,-181.68 171.13,-167.77 192.07,-155.65"/>
<polygon fill="black" stroke="black" points="193.92,-158.62 200.83,-150.59 190.42,-152.57 193.92,-158.62"/>
</g>
<!-- stuff_input_port -->
<g id="node7" class="node">
<title>stuff_input_port</title>
<ellipse fill="#ffffff" stroke="black" cx="643" cy="-210.5" rx="7" ry="7"/>
</g>
<!-- stuff_input_port&#45;&gt;stuff -->
<g id="edge7" class="edge">
<title>stuff_input_port&#45;&gt;stuff</title>
<path fill="none" stroke="black" d="M637.56,-205.97C630.69,-201.52 618.5,-193.64 608,-187 588.91,-174.92 567.54,-161.61 550,-150.73"/>
<polygon fill="black" stroke="black" points="551.56,-147.58 541.21,-145.29 547.87,-153.53 551.56,-147.58"/>
</g>
</g>
</svg>
