<?xml version="1.0" encoding="UTF-8" standalone="no"?>
<!DOCTYPE svg PUBLIC "-//W3C//DTD SVG 1.1//EN"
 "http://www.w3.org/Graphics/SVG/1.1/DTD/svg11.dtd">
<!-- Generated by graphviz version 2.49.0 (20210828.1703)
 -->
<!-- Title: yw_data_view Pages: 1 -->
<svg width="738pt" height="624pt"
 viewBox="0.00 0.00 738.00 624.00" xmlns="http://www.w3.org/2000/svg" xmlns:xlink="http://www.w3.org/1999/xlink">
<g id="graph0" class="graph" transform="scale(1 1) rotate(0) translate(4 620)">
<title>yw_data_view</title>
<polygon fill="white" stroke="transparent" points="-4,4 -4,-620 734,-620 734,4 -4,4"/>
<text text-anchor="middle" x="365" y="-597.6" font-family="Courier,monospace" font-size="18.00">restaurant_inspection_pipeline</text>
<g id="clust1" class="cluster">
<title>cluster_workflow</title>
<polygon fill="none" stroke="black" stroke-width="2" points="8,-8 8,-580 722,-580 722,-8 8,-8"/>
</g>
<g id="clust2" class="cluster">
<title>cluster_workflow_inner</title>
<polygon fill="none" stroke="white" stroke-width="2" points="16,-16 16,-572 714,-572 714,-16 16,-16"/>
</g>
<!-- CleanViolations -->
<g id="node1" class="node">
<title>CleanViolations</title>
<polygon fill="#ccffcc" stroke="black" points="263,-492 123,-492 123,-456 263,-456 263,-492"/>
<text text-anchor="middle" x="193" y="-470.3" font-family="Courier,monospace" font-size="14.00">CleanViolations</text>
</g>
<!-- cleaned_violations -->
<g id="node14" class="node">
<title>cleaned_violations</title>
<path fill="#ffffcc" stroke="black" d="M249,-420C249,-420 139,-420 139,-420 133,-420 127,-414 127,-408 127,-408 127,-396 127,-396 127,-390 133,-384 139,-384 139,-384 249,-384 249,-384 255,-384 261,-390 261,-396 261,-396 261,-408 261,-408 261,-414 255,-420 249,-420"/>
<text text-anchor="middle" x="194" y="-398.3" font-family="Helvetica,sans-Serif" font-size="14.00">cleaned_violations</text>
</g>
<!-- CleanViolations&#45;&gt;cleaned_violations -->
<g id="edge12" class="edge">
<title>CleanViolations&#45;&gt;cleaned_violations</title>
<path fill="none" stroke="black" d="M193.25,-455.7C193.36,-447.98 193.49,-438.71 193.61,-430.11"/>
<polygon fill="black" stroke="black" points="197.11,-430.15 193.76,-420.1 190.11,-430.05 197.11,-430.15"/>
</g>
<!-- CleanRestaurants -->
<g id="node2" class="node">
<title>CleanRestaurants</title>
<polygon fill="#ccffcc" stroke="black" points="430.5,-492 281.5,-492 281.5,-456 430.5,-456 430.5,-492"/>
<text text-anchor="middle" x="356" y="-470.3" font-family="Courier,monospace" font-size="14.00">CleanRestaurants</text>
</g>
<!-- cleaned_restaurants -->
<g id="node13" class="node">
<title>cleaned_restaurants</title>
<path fill="#ffffcc" stroke="black" d="M413.5,-420C413.5,-420 292.5,-420 292.5,-420 286.5,-420 280.5,-414 280.5,-408 280.5,-408 280.5,-396 280.5,-396 280.5,-390 286.5,-384 292.5,-384 292.5,-384 413.5,-384 413.5,-384 419.5,-384 425.5,-390 425.5,-396 425.5,-396 425.5,-408 425.5,-408 425.5,-414 419.5,-420 413.5,-420"/>
<text text-anchor="middle" x="353" y="-398.3" font-family="Helvetica,sans-Serif" font-size="14.00">cleaned_restaurants</text>
</g>
<!-- CleanRestaurants&#45;&gt;cleaned_restaurants -->
<g id="edge13" class="edge">
<title>CleanRestaurants&#45;&gt;cleaned_restaurants</title>
<path fill="none" stroke="black" d="M355.26,-455.7C354.93,-447.98 354.53,-438.71 354.16,-430.11"/>
<polygon fill="black" stroke="black" points="357.66,-429.95 353.73,-420.1 350.66,-430.25 357.66,-429.95"/>
</g>
<!-- CleanAddresses -->
<g id="node3" class="node">
<title>CleanAddresses</title>
<polygon fill="#ccffcc" stroke="black" points="581,-492 449,-492 449,-456 581,-456 581,-492"/>
<text text-anchor="middle" x="515" y="-470.3" font-family="Courier,monospace" font-size="14.00">CleanAddresses</text>
</g>
<!-- cleaned_addresses -->
<g id="node12" class="node">
<title>cleaned_addresses</title>
<path fill="#ffffcc" stroke="black" d="M574.5,-420C574.5,-420 455.5,-420 455.5,-420 449.5,-420 443.5,-414 443.5,-408 443.5,-408 443.5,-396 443.5,-396 443.5,-390 449.5,-384 455.5,-384 455.5,-384 574.5,-384 574.5,-384 580.5,-384 586.5,-390 586.5,-396 586.5,-396 586.5,-408 586.5,-408 586.5,-414 580.5,-420 574.5,-420"/>
<text text-anchor="middle" x="515" y="-398.3" font-family="Helvetica,sans-Serif" font-size="14.00">cleaned_addresses</text>
</g>
<!-- CleanAddresses&#45;&gt;cleaned_addresses -->
<g id="edge14" class="edge">
<title>CleanAddresses&#45;&gt;cleaned_addresses</title>
<path fill="none" stroke="black" d="M515,-455.7C515,-447.98 515,-438.71 515,-430.11"/>
<polygon fill="black" stroke="black" points="518.5,-430.1 515,-420.1 511.5,-430.1 518.5,-430.1"/>
</g>
<!-- CreateKeys -->
<g id="node4" class="node">
<title>CreateKeys</title>
<polygon fill="#ccffcc" stroke="black" points="402.5,-348 303.5,-348 303.5,-312 402.5,-312 402.5,-348"/>
<text text-anchor="middle" x="353" y="-326.3" font-family="Courier,monospace" font-size="14.00">CreateKeys</text>
</g>
<!-- clean_restaurant_data_w_keys -->
<g id="node11" class="node">
<title>clean_restaurant_data_w_keys</title>
<path fill="#ffffcc" stroke="black" d="M447,-276C447,-276 259,-276 259,-276 253,-276 247,-270 247,-264 247,-264 247,-252 247,-252 247,-246 253,-240 259,-240 259,-240 447,-240 447,-240 453,-240 459,-246 459,-252 459,-252 459,-264 459,-264 459,-270 453,-276 447,-276"/>
<text text-anchor="middle" x="353" y="-254.3" font-family="Helvetica,sans-Serif" font-size="14.00">clean_restaurant_data_w_keys</text>
</g>
<!-- CreateKeys&#45;&gt;clean_restaurant_data_w_keys -->
<g id="edge15" class="edge">
<title>CreateKeys&#45;&gt;clean_restaurant_data_w_keys</title>
<path fill="none" stroke="black" d="M353,-311.7C353,-303.98 353,-294.71 353,-286.11"/>
<polygon fill="black" stroke="black" points="356.5,-286.1 353,-276.1 349.5,-286.1 356.5,-286.1"/>
</g>
<!-- RenameCols -->
<g id="node5" class="node">
<title>RenameCols</title>
<polygon fill="#ccffcc" stroke="black" points="402.5,-204 303.5,-204 303.5,-168 402.5,-168 402.5,-204"/>
<text text-anchor="middle" x="353" y="-182.3" font-family="Courier,monospace" font-size="14.00">RenameCols</text>
</g>
<!-- clean_restaurant_data_renamed -->
<g id="node10" class="node">
<title>clean_restaurant_data_renamed</title>
<path fill="#ffffcc" stroke="black" d="M451.5,-132C451.5,-132 254.5,-132 254.5,-132 248.5,-132 242.5,-126 242.5,-120 242.5,-120 242.5,-108 242.5,-108 242.5,-102 248.5,-96 254.5,-96 254.5,-96 451.5,-96 451.5,-96 457.5,-96 463.5,-102 463.5,-108 463.5,-108 463.5,-120 463.5,-120 463.5,-126 457.5,-132 451.5,-132"/>
<text text-anchor="middle" x="353" y="-110.3" font-family="Helvetica,sans-Serif" font-size="14.00">clean_restaurant_data_renamed</text>
</g>
<!-- RenameCols&#45;&gt;clean_restaurant_data_renamed -->
<g id="edge16" class="edge">
<title>RenameCols&#45;&gt;clean_restaurant_data_renamed</title>
<path fill="none" stroke="black" d="M353,-167.7C353,-159.98 353,-150.71 353,-142.11"/>
<polygon fill="black" stroke="black" points="356.5,-142.1 353,-132.1 349.5,-142.1 356.5,-142.1"/>
</g>
<!-- SaveInspections -->
<g id="node6" class="node">
<title>SaveInspections</title>
<polygon fill="#ccffcc" stroke="black" points="164,-60 24,-60 24,-24 164,-24 164,-60"/>
<text text-anchor="middle" x="94" y="-38.3" font-family="Courier,monospace" font-size="14.00">SaveInspections</text>
</g>
<!-- SaveRestaurants -->
<g id="node7" class="node">
<title>SaveRestaurants</title>
<polygon fill="#ccffcc" stroke="black" points="322,-60 182,-60 182,-24 322,-24 322,-60"/>
<text text-anchor="middle" x="252" y="-38.3" font-family="Courier,monospace" font-size="14.00">SaveRestaurants</text>
</g>
<!-- SaveRestaurantInspections -->
<g id="node8" class="node">
<title>SaveRestaurantInspections</title>
<polygon fill="#ccffcc" stroke="black" points="563.5,-60 340.5,-60 340.5,-24 563.5,-24 563.5,-60"/>
<text text-anchor="middle" x="452" y="-38.3" font-family="Courier,monospace" font-size="14.00">SaveRestaurantInspections</text>
</g>
<!-- SaveAddresses -->
<g id="node9" class="node">
<title>SaveAddresses</title>
<polygon fill="#ccffcc" stroke="black" points="706,-60 582,-60 582,-24 706,-24 706,-60"/>
<text text-anchor="middle" x="644" y="-38.3" font-family="Courier,monospace" font-size="14.00">SaveAddresses</text>
</g>
<!-- clean_restaurant_data_renamed&#45;&gt;SaveInspections -->
<g id="edge1" class="edge">
<title>clean_restaurant_data_renamed&#45;&gt;SaveInspections</title>
<path fill="none" stroke="black" d="M289.97,-95.97C252.84,-85.93 205.7,-73.19 166.97,-62.72"/>
<polygon fill="black" stroke="black" points="167.88,-59.34 157.31,-60.11 166.05,-66.1 167.88,-59.34"/>
</g>
<!-- clean_restaurant_data_renamed&#45;&gt;SaveRestaurants -->
<g id="edge2" class="edge">
<title>clean_restaurant_data_renamed&#45;&gt;SaveRestaurants</title>
<path fill="none" stroke="black" d="M328.29,-95.88C315.33,-86.89 299.27,-75.76 285.23,-66.03"/>
<polygon fill="black" stroke="black" points="287.02,-63.01 276.8,-60.19 283.03,-68.76 287.02,-63.01"/>
</g>
<!-- clean_restaurant_data_renamed&#45;&gt;SaveRestaurantInspections -->
<g id="edge3" class="edge">
<title>clean_restaurant_data_renamed&#45;&gt;SaveRestaurantInspections</title>
<path fill="none" stroke="black" d="M377.22,-95.88C389.92,-86.89 405.66,-75.76 419.42,-66.03"/>
<polygon fill="black" stroke="black" points="421.54,-68.82 427.69,-60.19 417.5,-63.11 421.54,-68.82"/>
</g>
<!-- clean_restaurant_data_renamed&#45;&gt;SaveAddresses -->
<g id="edge4" class="edge">
<title>clean_restaurant_data_renamed&#45;&gt;SaveAddresses</title>
<path fill="none" stroke="black" d="M423.81,-95.97C468.8,-85.14 526.85,-71.18 572.05,-60.31"/>
<polygon fill="black" stroke="black" points="572.88,-63.71 581.78,-57.97 571.24,-56.9 572.88,-63.71"/>
</g>
<!-- clean_restaurant_data_w_keys&#45;&gt;RenameCols -->
<g id="edge5" class="edge">
<title>clean_restaurant_data_w_keys&#45;&gt;RenameCols</title>
<path fill="none" stroke="black" d="M353,-239.7C353,-231.98 353,-222.71 353,-214.11"/>
<polygon fill="black" stroke="black" points="356.5,-214.1 353,-204.1 349.5,-214.1 356.5,-214.1"/>
</g>
<!-- cleaned_addresses&#45;&gt;CreateKeys -->
<g id="edge6" class="edge">
<title>cleaned_addresses&#45;&gt;CreateKeys</title>
<path fill="none" stroke="black" d="M475.37,-383.88C453.22,-374.31 425.44,-362.3 401.94,-352.15"/>
<polygon fill="black" stroke="black" points="403.07,-348.82 392.5,-348.07 400.29,-355.25 403.07,-348.82"/>
</g>
<!-- cleaned_restaurants&#45;&gt;CreateKeys -->
<g id="edge7" class="edge">
<title>cleaned_restaurants&#45;&gt;CreateKeys</title>
<path fill="none" stroke="black" d="M353,-383.7C353,-375.98 353,-366.71 353,-358.11"/>
<polygon fill="black" stroke="black" points="356.5,-358.1 353,-348.1 349.5,-358.1 356.5,-358.1"/>
</g>
<!-- cleaned_violations&#45;&gt;CreateKeys -->
<g id="edge8" class="edge">
<title>cleaned_violations&#45;&gt;CreateKeys</title>
<path fill="none" stroke="black" d="M232.9,-383.88C254.63,-374.31 281.9,-362.3 304.96,-352.15"/>
<polygon fill="black" stroke="black" points="306.49,-355.3 314.23,-348.07 303.67,-348.89 306.49,-355.3"/>
</g>
<!-- restaurant_data_file -->
<g id="node15" class="node">
<title>restaurant_data_file</title>
<path fill="#ffffcc" stroke="black" d="M414.5,-564C414.5,-564 297.5,-564 297.5,-564 291.5,-564 285.5,-558 285.5,-552 285.5,-552 285.5,-540 285.5,-540 285.5,-534 291.5,-528 297.5,-528 297.5,-528 414.5,-528 414.5,-528 420.5,-528 426.5,-534 426.5,-540 426.5,-540 426.5,-552 426.5,-552 426.5,-558 420.5,-564 414.5,-564"/>
<text text-anchor="middle" x="356" y="-542.3" font-family="Helvetica,sans-Serif" font-size="14.00">restaurant_data_file</text>
</g>
<!-- restaurant_data_file&#45;&gt;CleanViolations -->
<g id="edge9" class="edge">
<title>restaurant_data_file&#45;&gt;CleanViolations</title>
<path fill="none" stroke="black" d="M316.13,-527.88C293.84,-518.31 265.88,-506.3 242.24,-496.15"/>
<polygon fill="black" stroke="black" points="243.31,-492.8 232.74,-492.07 240.55,-499.23 243.31,-492.8"/>
</g>
<!-- restaurant_data_file&#45;&gt;CleanRestaurants -->
<g id="edge10" class="edge">
<title>restaurant_data_file&#45;&gt;CleanRestaurants</title>
<path fill="none" stroke="black" d="M356,-527.7C356,-519.98 356,-510.71 356,-502.11"/>
<polygon fill="black" stroke="black" points="359.5,-502.1 356,-492.1 352.5,-502.1 359.5,-502.1"/>
</g>
<!-- restaurant_data_file&#45;&gt;CleanAddresses -->
<g id="edge11" class="edge">
<title>restaurant_data_file&#45;&gt;CleanAddresses</title>
<path fill="none" stroke="black" d="M394.9,-527.88C416.63,-518.31 443.9,-506.3 466.96,-496.15"/>
<polygon fill="black" stroke="black" points="468.49,-499.3 476.23,-492.07 465.67,-492.89 468.49,-499.3"/>
</g>
</g>
</svg>
